<?xml version="1.0" standalone="no"?>
<svg xmlns:xlink="http://www.w3.org/1999/xlink" id="wave" style="transform:rotate(180deg); transition: 0.3s" viewBox="0 0 1440 490" version="1.1" xmlns="http://www.w3.org/2000/svg"><defs><linearGradient id="sw-gradient-0" x1="0" x2="0" y1="1" y2="0"><stop stop-color="rgba(162, 52, 92, 1)" offset="0%"/><stop stop-color="rgba(162, 52, 92, 1)" offset="100%"/></linearGradient></defs><path style="transform:translate(0, 0px); opacity:1" fill="url(#sw-gradient-0)" d="M0,294L34.3,245C68.6,196,137,98,206,65.3C274.3,33,343,65,411,98C480,131,549,163,617,187.8C685.7,212,754,229,823,196C891.4,163,960,82,1029,40.8C1097.1,0,1166,0,1234,8.2C1302.9,16,1371,33,1440,49C1508.6,65,1577,82,1646,147C1714.3,212,1783,327,1851,351.2C1920,376,1989,310,2057,261.3C2125.7,212,2194,180,2263,163.3C2331.4,147,2400,147,2469,147C2537.1,147,2606,147,2674,122.5C2742.9,98,2811,49,2880,24.5C2948.6,0,3017,0,3086,24.5C3154.3,49,3223,98,3291,122.5C3360,147,3429,147,3497,130.7C3565.7,114,3634,82,3703,65.3C3771.4,49,3840,49,3909,65.3C3977.1,82,4046,114,4114,163.3C4182.9,212,4251,278,4320,277.7C4388.6,278,4457,212,4526,220.5C4594.3,229,4663,310,4731,310.3C4800,310,4869,229,4903,187.8L4937.1,147L4937.1,490L4902.9,490C4868.6,490,4800,490,4731,490C4662.9,490,4594,490,4526,490C4457.1,490,4389,490,4320,490C4251.4,490,4183,490,4114,490C4045.7,490,3977,490,3909,490C3840,490,3771,490,3703,490C3634.3,490,3566,490,3497,490C3428.6,490,3360,490,3291,490C3222.9,490,3154,490,3086,490C3017.1,490,2949,490,2880,490C2811.4,490,2743,490,2674,490C2605.7,490,2537,490,2469,490C2400,490,2331,490,2263,490C2194.3,490,2126,490,2057,490C1988.6,490,1920,490,1851,490C1782.9,490,1714,490,1646,490C1577.1,490,1509,490,1440,490C1371.4,490,1303,490,1234,490C1165.7,490,1097,490,1029,490C960,490,891,490,823,490C754.3,490,686,490,617,490C548.6,490,480,490,411,490C342.9,490,274,490,206,490C137.1,490,69,490,34,490L0,490Z"/></svg>