<?xml version="1.0" standalone="no"?><svg xmlns="http://www.w3.org/2000/svg" viewBox="0 0 1440 320"><path fill="#e7008a" fill-opacity="1" d="M0,96L34.3,128C68.6,160,137,224,206,224C274.3,224,343,160,411,122.7C480,85,549,75,617,106.7C685.7,139,754,213,823,218.7C891.4,224,960,160,1029,160C1097.1,160,1166,224,1234,224C1302.9,224,1371,160,1406,128L1440,96L1440,0L1405.7,0C1371.4,0,1303,0,1234,0C1165.7,0,1097,0,1029,0C960,0,891,0,823,0C754.3,0,686,0,617,0C548.6,0,480,0,411,0C342.9,0,274,0,206,0C137.1,0,69,0,34,0L0,0Z"></path></svg>