<?xml version="1.0" standalone="no"?><svg xmlns="http://www.w3.org/2000/svg" viewBox="0 0 1440 320"><path fill="#A2345C" fill-opacity="1" d="M0,128L21.8,149.3C43.6,171,87,213,131,240C174.5,267,218,277,262,256C305.5,235,349,181,393,186.7C436.4,192,480,256,524,272C567.3,288,611,256,655,224C698.2,192,742,160,785,149.3C829.1,139,873,149,916,154.7C960,160,1004,160,1047,181.3C1090.9,203,1135,245,1178,240C1221.8,235,1265,181,1309,144C1352.7,107,1396,85,1418,74.7L1440,64L1440,0L1418.2,0C1396.4,0,1353,0,1309,0C1265.5,0,1222,0,1178,0C1134.5,0,1091,0,1047,0C1003.6,0,960,0,916,0C872.7,0,829,0,785,0C741.8,0,698,0,655,0C610.9,0,567,0,524,0C480,0,436,0,393,0C349.1,0,305,0,262,0C218.2,0,175,0,131,0C87.3,0,44,0,22,0L0,0Z"></path></svg>