<?xml version="1.0" standalone="no"?><svg xmlns="http://www.w3.org/2000/svg" viewBox="0 0 1440 320"><path fill="#C17985" fill-opacity="1" d="M0,160L30,144C60,128,120,96,180,101.3C240,107,300,149,360,186.7C420,224,480,256,540,250.7C600,245,660,203,720,186.7C780,171,840,181,900,202.7C960,224,1020,256,1080,266.7C1140,277,1200,267,1260,218.7C1320,171,1380,85,1410,42.7L1440,0L1440,0L1410,0C1380,0,1320,0,1260,0C1200,0,1140,0,1080,0C1020,0,960,0,900,0C840,0,780,0,720,0C660,0,600,0,540,0C480,0,420,0,360,0C300,0,240,0,180,0C120,0,60,0,30,0L0,0Z"></path></svg>